<svg xmlns="http://www.w3.org/2000/svg" viewBox="0 0 259.97 233.98"><defs><style>.cls-1{fill:#fff;}.cls-2{font-size:18px;fill:#231f20;font-family:GillSansMT-Bold, Gill Sans MT;font-weight:700;}</style></defs><title>Asset 1</title><g id="Layer_2" data-name="Layer 2"><g id="Layer_1-2" data-name="Layer 1"><path class="cls-1" d="M103.24,106.55c-8.11,13.63-10.53,28.85-11.06,44.34-.49,14.5-.22,29-.21,43.53,0,6.34,3.24,10,8.48,9.89,5-.09,8-3.69,8.07-9.75.35-17.81.31-35.62,1.16-53.4.57-11.92,4.38-23.17,12.22-32.38a17.93,17.93,0,0,0,4.68-13.94c-.3-3.76-.06-7.56-.06-12.32C115.85,88.75,108.88,97.07,103.24,106.55ZM157,92.1a6.82,6.82,0,0,0,2.58,4.14c6.13,4.81,8.34,11.76,5.93,19.61-2.14,7-7.93,11.22-15.8,11.3-9.89.1-19.78,0-30.11,0-.93,5.55-1.8,10.68-2.65,15.77,13.86,0,27.12,1,40.15-.28,13.88-1.42,24.11-13.89,25.36-27.91,1.5-16.92-5.57-29.86-19.35-35.26a61.11,61.11,0,0,0-6.23-1.65C156.92,83,156.71,87.55,157,92.1ZM150.34,81c0-12.12,0-24.24,0-36.36,0-6-3.22-9.53-8.31-9.44-4.88.09-8.12,3.55-8.14,9.13q-.08,36.36,0,72.72a18.81,18.81,0,0,0,.32,2.38h16.15Zm-16,70.52a28.9,28.9,0,0,0-.46,3.71q0,34.46,0,68.91a12,12,0,0,0,.08,2.75c1.07,4.4,3.69,7.29,8.45,7.08s7.81-3,7.85-7.62c.18-24.76.08-49.52.08-74.83Zm-97-25.36c-4.8,0-7.3,3.41-7.13,8.57.14,4.64,2.06,7.91,7.15,7.94,14.69.09,29.39.12,44.07-.11,1.28,0,3.31-2,3.64-3.39,1-4.07,1.25-8.31,1.87-13.08C70,126.08,53.67,126,37.35,126.15Z"/><path d="M126.52,82.52c-10.67,6.23-17.64,14.55-23.28,24-8.11,13.63-10.53,28.85-11.06,44.34-.49,14.5-.22,29-.21,43.53,0,6.34,3.24,10,8.48,9.89,5-.09,8-3.69,8.07-9.75.35-17.81.31-35.62,1.16-53.4.57-11.92,4.38-23.17,12.22-32.38a17.93,17.93,0,0,0,4.68-13.94C126.28,91.08,126.52,87.28,126.52,82.52Z"/><path d="M156.92,77.85c0,5.11-.21,9.7.12,14.25a6.82,6.82,0,0,0,2.58,4.14c6.13,4.81,8.34,11.76,5.93,19.61-2.14,7-7.93,11.22-15.8,11.3-9.89.1-19.78,0-30.11,0-.93,5.55-1.8,10.68-2.65,15.77,13.86,0,27.12,1,40.15-.28,13.88-1.42,24.11-13.89,25.36-27.91,1.5-16.92-5.57-29.86-19.35-35.26A61.11,61.11,0,0,0,156.92,77.85Z"/><path d="M126.76,69.68c0-5.11.21-9.69-.12-14.24a6.75,6.75,0,0,0-2.58-4.14c-6.13-4.81-8.33-11.76-5.93-19.61,2.15-7,7.93-11.23,15.81-11.31,9.88-.1,19.77,0,30.1,0,.94-5.55,1.8-10.69,2.66-15.77-13.86,0-27.13-1-40.15.28-13.88,1.41-24.11,13.89-25.36,27.91C99.68,49.69,106.75,62.64,120.54,68A56.08,56.08,0,0,0,126.76,69.68Z"/><path d="M150.34,119.42V81c0-12.12,0-24.24,0-36.36,0-6-3.22-9.53-8.31-9.44-4.88.09-8.12,3.55-8.14,9.13q-.08,36.36,0,72.72a18.81,18.81,0,0,0,.32,2.38Z"/><path d="M150.31,151.51h-16a28.9,28.9,0,0,0-.46,3.71q0,34.46,0,68.91a12,12,0,0,0,.08,2.75c1.07,4.4,3.69,7.29,8.45,7.08s7.81-3,7.85-7.62C150.41,201.58,150.31,176.82,150.31,151.51Z"/><path d="M87,126.08c-17,0-33.28-.1-49.6.07-4.8,0-7.3,3.41-7.13,8.57.14,4.64,2.06,7.91,7.15,7.94,14.69.09,29.39.12,44.07-.11,1.28,0,3.31-2,3.64-3.39C86,135.09,86.33,130.85,87,126.08Z"/><text class="cls-2" transform="translate(195.63 30.22) rotate(45.06)">P</text><text class="cls-2" transform="matrix(0.63, 0.77, -0.77, 0.63, 203.77, 38.37)">E</text><text class="cls-2" transform="matrix(0.56, 0.83, -0.83, 0.56, 210.87, 46.97)">R</text><text class="cls-2" transform="translate(217.47 56.86) rotate(61.76)">S</text><text class="cls-2" transform="translate(222.44 66.3) rotate(65.81)">I</text><text class="cls-2" transform="matrix(0.33, 0.94, -0.94, 0.33, 224.96, 71.46)">A</text><text class="cls-2" transform="translate(229.56 84.37) rotate(77.64)">N</text><text class="cls-2" transform="matrix(0.13, 0.99, -0.99, 0.13, 232.56, 99.02)"> </text><text class="cls-2" transform="translate(233.3 103.79) rotate(86.2)">L</text><text class="cls-2" transform="translate(233.94 114.62) rotate(90.24)">I</text><text class="cls-2" transform="matrix(-0.08, 1, -1, -0.08, 234.06, 120.39)">V</text><text class="cls-2" transform="translate(232.88 133.05) rotate(99.32)">I</text><text class="cls-2" transform="translate(232.16 138.75) rotate(104.42)">N</text><text class="cls-2" transform="translate(228.47 153.13) rotate(111.58)">G</text><text class="cls-2" transform="translate(223.01 166.42) rotate(116.27)"> </text><text class="cls-2" transform="matrix(-0.51, 0.86, -0.86, -0.51, 221.01, 170.79)">R</text><text class="cls-2" transform="matrix(-0.6, 0.8, -0.8, -0.6, 215.37, 180.63)">U</text><text class="cls-2" transform="matrix(-0.69, 0.73, -0.73, -0.69, 206.77, 192.28)">G</text><text class="cls-2" transform="matrix(-0.76, 0.65, -0.65, -0.76, 196.85, 202.6)">S</text></g></g></svg>