<svg id="Layer_1" data-name="Layer 1" xmlns="http://www.w3.org/2000/svg" viewBox="0 0 259.97 233.98">
  <defs>
    <style>
      .cls-1 {
        fill: #fff;
      }

      .cls-2 {
        font-size: 18px;
        fill: #231f20;
        font-family: GillSansMT-Bold, Gill Sans MT;
        font-weight: 700;
      }
    </style>
  </defs>
  <title>logo</title>
  <path class="cls-1" d="M258.32,384.61c-8.11,13.63-10.53,28.85-11,44.34-.49,14.49-.23,29-.21,43.53,0,6.33,3.24,10,8.47,9.88,5-.09,8-3.69,8.08-9.75.34-17.8.3-35.62,1.15-53.39.57-11.92,4.38-23.17,12.23-32.38a17.93,17.93,0,0,0,4.67-13.94c-.3-3.76-.06-7.57-.06-12.32C270.93,366.8,264,375.12,258.32,384.61Zm53.81-14.45a6.74,6.74,0,0,0,2.57,4.13c6.14,4.82,8.34,11.76,5.93,19.61-2.14,7-7.92,11.23-15.8,11.31-9.89.1-19.77,0-30.11,0-.93,5.56-1.79,10.69-2.65,15.78,13.86,0,27.13,1,40.15-.29,13.88-1.41,24.11-13.89,25.36-27.91,1.5-16.91-5.57-29.85-19.35-35.25a58.61,58.61,0,0,0-6.23-1.65C312,361,311.8,365.61,312.13,370.16ZM305.42,359c0-12.12.05-24.24,0-36.36,0-6-3.23-9.53-8.32-9.43-4.87.09-8.12,3.54-8.13,9.13-.06,24.24,0,48.48,0,72.72a20.84,20.84,0,0,0,.32,2.38h16.15Zm-16,70.53a30.79,30.79,0,0,0-.46,3.71q0,34.44,0,68.9a12,12,0,0,0,.08,2.75c1.07,4.41,3.69,7.3,8.45,7.09s7.82-3,7.85-7.62c.18-24.76.08-49.53.08-74.83Zm-97-25.37c-4.8.06-7.29,3.42-7.13,8.58.14,4.64,2.06,7.9,7.15,7.94,14.69.09,29.39.12,44.08-.12,1.27,0,3.3-2,3.63-3.38,1-4.08,1.25-8.32,1.88-13.08C225.08,404.14,208.75,404,192.43,404.2Z" transform="translate(-155.08 -278.06)"/>
  <path d="M281.6,360.58c-10.67,6.22-17.64,14.54-23.28,24-8.11,13.63-10.53,28.85-11,44.34-.49,14.49-.23,29-.21,43.53,0,6.33,3.24,10,8.47,9.88,5-.09,8-3.69,8.08-9.75.34-17.8.3-35.62,1.15-53.39.57-11.92,4.38-23.17,12.23-32.38a17.93,17.93,0,0,0,4.67-13.94C281.36,369.14,281.6,365.33,281.6,360.58Z" transform="translate(-155.08 -278.06)"/>
  <path d="M312,355.91c0,5.11-.2,9.7.13,14.25a6.74,6.74,0,0,0,2.57,4.13c6.14,4.82,8.34,11.76,5.93,19.61-2.14,7-7.92,11.23-15.8,11.31-9.89.1-19.77,0-30.11,0-.93,5.56-1.79,10.69-2.65,15.78,13.86,0,27.13,1,40.15-.29,13.88-1.41,24.11-13.89,25.36-27.91,1.5-16.91-5.57-29.85-19.35-35.25A58.61,58.61,0,0,0,312,355.91Z" transform="translate(-155.08 -278.06)"/>
  <path d="M281.84,347.74c0-5.11.21-9.7-.12-14.25a6.79,6.79,0,0,0-2.57-4.14c-6.14-4.81-8.34-11.75-5.93-19.6,2.14-7,7.92-11.23,15.8-11.31,9.89-.1,19.77,0,30.11,0,.93-5.56,1.79-10.69,2.65-15.78-13.86,0-27.13-1-40.15.29-13.88,1.41-24.11,13.88-25.36,27.91-1.5,16.91,5.57,29.85,19.35,35.25A59,59,0,0,0,281.84,347.74Z" transform="translate(-155.08 -278.06)"/>
  <path d="M305.42,397.48V359c0-12.12.05-24.24,0-36.36,0-6-3.23-9.53-8.32-9.43-4.87.09-8.12,3.54-8.13,9.13-.06,24.24,0,48.48,0,72.72a20.84,20.84,0,0,0,.32,2.38Z" transform="translate(-155.08 -278.06)"/>
  <path d="M305.39,429.57h-16a30.79,30.79,0,0,0-.46,3.71q0,34.44,0,68.9a12,12,0,0,0,.08,2.75c1.07,4.41,3.69,7.3,8.45,7.09s7.82-3,7.85-7.62C305.49,479.64,305.39,454.87,305.39,429.57Z" transform="translate(-155.08 -278.06)"/>
  <path d="M242,404.14c-17,0-33.29-.11-49.61.06-4.8.06-7.29,3.42-7.13,8.58.14,4.64,2.06,7.9,7.15,7.94,14.69.09,29.39.12,44.08-.12,1.27,0,3.3-2,3.63-3.38C241.13,413.14,241.41,408.9,242,404.14Z" transform="translate(-155.08 -278.06)"/>
  <text class="cls-2" transform="translate(195.63 30.22) rotate(45.06)">P</text>
  <text class="cls-2" transform="matrix(0.63, 0.77, -0.77, 0.63, 203.77, 38.37)">E</text>
  <text class="cls-2" transform="matrix(0.56, 0.83, -0.83, 0.56, 210.87, 46.97)">R</text>
  <text class="cls-2" transform="translate(217.47 56.86) rotate(61.76)">S</text>
  <text class="cls-2" transform="translate(222.44 66.3) rotate(65.81)">I</text>
  <text class="cls-2" transform="matrix(0.33, 0.94, -0.94, 0.33, 224.96, 71.46)">A</text>
  <text class="cls-2" transform="translate(229.56 84.37) rotate(77.64)">N</text>
  <text class="cls-2" transform="matrix(0.13, 0.99, -0.99, 0.13, 232.56, 99.02)"> </text>
  <text class="cls-2" transform="translate(233.3 103.79) rotate(86.2)">L</text>
  <text class="cls-2" transform="translate(233.94 114.62) rotate(90.24)">I</text>
  <text class="cls-2" transform="matrix(-0.08, 1, -1, -0.08, 234.06, 120.39)">V</text>
  <text class="cls-2" transform="translate(232.88 133.05) rotate(99.32)">I</text>
  <text class="cls-2" transform="translate(232.16 138.75) rotate(104.42)">N</text>
  <text class="cls-2" transform="translate(228.47 153.13) rotate(111.58)">G</text>
  <text class="cls-2" transform="translate(223.01 166.42) rotate(116.27)"> </text>
  <text class="cls-2" transform="matrix(-0.51, 0.86, -0.86, -0.51, 221.01, 170.79)">R</text>
  <text class="cls-2" transform="matrix(-0.6, 0.8, -0.8, -0.6, 215.37, 180.63)">U</text>
  <text class="cls-2" transform="matrix(-0.69, 0.73, -0.73, -0.69, 206.77, 192.28)">G</text>
  <text class="cls-2" transform="matrix(-0.76, 0.65, -0.65, -0.76, 196.85, 202.6)">S</text>
</svg>
